<svg class="target" xmlns:xlink="http://www.w3.org/1999/xlink" width="4400" height="5300" xmlns="http://www.w3.org/2000/svg" viewBox="0 0 1760 2120">
    <title>141382-20190118-3 区域图（四面台）</title>
    <path id="AAA" fill="green" d="M1741.51,1629.51v460H17.52v-460H51V731.63A179.07,179.07,0,0,1,69.64,652H24.25V32h1710V652h-31.86A178.27,178.28,0,0,1,1721,731.63V1629.52Z" style="fill:#ddd"></path><path d="M1229.25,92V592h-700V92h700m1-1h-702V593h702V91Z" style="fill:#333"></path><path d="M504.26,92V592h-420V92h420M532,612V712H271l-14.47-20-14.47-20-14.42-19.93-13.53-18.71-12.84-17.74A119.43,119.43,0,0,1,230.62,612H532M505.26,91h-422V593h422V91ZM533,611H230.62A120.67,120.66,0,0,0,201,614.69l-1.43.36.86,1.19L213.29,634l13.53,18.71,14.43,19.93,14.48,20,14.48,20,.3.41H533V611Z" style="fill:#333"></path><path d="M1661,1238v423H1561V1238h100m1-1H1560v425h102V1237Z" style="fill:#333"></path>
    <path d="M1583.34,619.61a119.83,119.83,0,0,1,77.66,112V1213H1561V731.62A19.68,19.69,0,0,0,1541.38,712h-23.33l14.13-20,14-19.78L1559,654l12.28-17.42,12-17m-.37-1.21-.45.64-12,17-12.28,17.41-12.88,18.21-14,19.79-14.14,20-1.11,1.58h25.26A18.65,18.65,0,0,1,1560,731.62V1214h102V731.62a120.81,120.82,0,0,0-78.32-113l-.72-.28Z" style="fill:#333"></path>
    <path d="M177,624.72l11.92,16.46,12,16.62,12.19,16.85,12.79,17.66L240.14,712h-9.52A19.69,19.69,0,0,0,211,731.62V1212H111V731.63a119.75,119.75,0,0,1,66-106.91m.31-1.27-.76.38a121.33,121.34,0,0,0-48.06,43.69A120.08,120.09,0,0,0,110,731.62V1213H212V731.62A18.64,18.64,0,0,1,230.63,713h11.47l-1.15-1.59-14.26-19.71L213.92,674.05l-12.19-16.86-12-16.62-11.91-16.45-.5-.69Z" style="fill:#333"></path><path d="M1674.26,92V592h-420V92h420M1541.39,612a120.07,120.06,0,0,1,16,1.07L1544,632l-14.11,20-14.14,20-14.13,20-14.14,20h-261V612h314.88M1675.25,91h-422V593h422V91ZM1541.39,611H1225.52V713H1488l.3-.42,14.14-20,14.13-20,14.14-20,14.11-20,13.42-19,.95-1.34-1.63-.22a120.85,120.84,0,0,0-16.11-1.08Z" style="fill:#333"></path><path d="M1201.52,612V712H557V612h644.51m1-1H556V713h646.51V611Z" style="fill:#333"></path><path d="M211,1237v423H111V1237H211m1-1H110v425H212V1236Z" style="fill:#333"></path><path d="M1195,1689.52v340H565v-340h630m1-1H564v342h632v-342Z" style="fill:#333"></path><path d="M1681.51,1689.52v340h-462v-340h462m1-1h-464v342h464v-342Z" style="fill:#333"></path><path d="M539.51,1689.52v340H77.52v-340h462m1-1H76.52v342h464v-342Z" style="fill:#333"></path><rect x="536.72" y="1038.01" width="686.66" height="366.62" style="fill:#45b2c2" data-spm-anchor-id="a2o7u.seatMakeOld.0.i14.61c8131ebgZPQBd"></rect><path d="M519.32,1024.86v392.94h720.36V1024.85Zm704.05,379.77H536.71V1038h686.67Z" style="fill:#44bdcf" data-spm-anchor-id="a2o7u.seatMakeOld.0.i13.61c8131ebgZPQBd"></path><path d="M1234.88,1030.15V1412.52H525.12V1030.15h709.78m10.59-10.58H514.54v403.51h730.94V1019.57Z" style="fill:#999"></path>
    <path d="M1221.72,1038H538.31a1.59,1.59,0,0,0-1.59,1.59v123.56h0v240a1.59,1.59,0,0,0,1.59,1.59h683.41a1.59,1.59,0,0,0,1.59-1.59V1039.57A1.59,1.59,0,0,0,1221.72,1038Z
                m-135.93,142.66a40.74,40.75,0,0,1,0,81.42ZM1082,1262a40.75,40.75,0,0,1,0-81.41Z
                m3.78,15.32v-11.49h134.35v11.49Zm14.71-15.27a43.92,43.92,0,0,0,0-81.49h119.65v81.49Zm-14.72-85.27v-11.49h134.35v11.49Z
                m-2.19-15.27a1.59,1.59,0,0,0-1.59,1.59v14.33a43.91,43.92,0,0,0,0,87.75v14.33h0a1.65,1.65,0,0,0,0,.31.75.75,0,0,0,0,.16.57.57,0,0,0,0,.14.67.67,0,0,0,.06.12,1.33,1.33,0,0,0,.28.39,1.3,1.3,0,0,0,.18.15l.06,0,0,0a1.62,1.62,0,0,0,.84.26h136.53v98.07h-99.79a170.52,170.51,0,0,1,0-315.73h99.78v98.08Z
                m-204.72,60.92.13.1v39.62a40.85,40.84,0,0,1,0-81.65v39.61l-.13.11a1.57,1.57,0,0,0-.2.25,1.17,1.17,0,0,0-.15.28,2.46,2.46,0,0,0-.09.28,1.71,1.71,0,0,0,0,.31A1.61,1.61,0,0,0,878.89,1222.45Z
                m3.3-41.93a40.85,40.86,0,0,1,0,81.58Zm-342.31-15.83H674.22v12.08H539.89Z
                m177.89,56.63a41.39,41.39,0,0,1-39.76,41.32v-41.31h0V1180A41.39,41.38,0,0,1,717.76,1221.34Z
                m-43.54-40.76V1262l-.33,0a40.75,40.75,0,0,1-3.24-81.36Zm-17.06,0a43.91,43.91,0,0,0,.72,81.49h-118v-81.49Zm17.05,85.28v11.49H539.89v-11.49Z
                m2.19,15.28a1.57,1.57,0,0,0,1.46-1,0,0,0,0,0,0,0,.79.79,0,0,0,.08-.26,1.65,1.65,0,0,0,0-.31h0v-13.72a44.49,44.48,0,0,0,42.51-50.64s0-.11,0-.16v0A44.59,44.58,0,0,0,678,1176.85v-13.57c0-.06,0-.12,0-.17a1.73,1.73,0,0,0,0-.32,1.4,1.4,0,0,0-.09-.29,1.17,1.17,0,0,0-.15-.27,1.55,1.55,0,0,0-.19-.24,1.6,1.6,0,0,0-1.21-.46H539.88v-98.07h99.77a170.51,170.52,0,0,1,0,315.74H539.89v-98.07Z
                M539.88,1383h100.22a1.53,1.53,0,0,0,.6-.12,174.28,174.29,0,0,0,0-323,1.53,1.53,0,0,0-.6-.12H539.88v-18.53H879v135a45.23,45.23,0,0,0,0,90.43v135H539.89Z
                m342.31,18.54v-135a45.24,45.24,0,0,0,0-90.37v-135h337.95v18.53h-100.22a1.53,1.53,0,0,0-.6.12,174.28,174.29,0,0,0,0,323,1.53,1.53,0,0,0,.6.12h100.21v18.53Z"
          style="fill:#FFFFFF"></path>
    <path d="M1560.52,1213.52V731.62a19.16,19.15,0,0,0-19.12-19.13h-24.29l66.06-93.5.36.13a120.34,120.35,0,0,1,78,112.49V1213.52Z" style="fill: rgb(238, 238, 238);" data-spm-anchor-id="a2o7u.seatMakeOld.0.i5.62c8131ebgZPQBd" floorid="1987582"></path><path d="M110.51,1212.52V731.62a119.56,119.56,0,0,1,18.42-63.84,120.85,120.85,0,0,1,47.85-43.52l.38-.2,64,88.42H230.62a19.15,19.15,0,0,0-19.12,19.13V1212.51Z" style="fill: rgb(238, 238, 238);" data-spm-anchor-id="a2o7u.seatMakeOld.0.i11.61c8131ebgZPQBd" floorid="1987581"></path><path d="M270.73,712.52l-70.31-97.16.72-.18a120.16,120.16,0,0,1,29.47-3.66H532.52v101Zm-187-120V91.51h421v501Z" style="fill: rgb(212, 125, 74); opacity: 1;" data-spm-anchor-id="a2o7u.seatMakeOld.0.i1.6c8131ebgZPQBd" floorid="1987584"></path><rect x="1560.52" y="1237.52" width="101" height="424" style="fill: rgb(238, 238, 238);" data-spm-anchor-id="a2o7u.seatMakeOld.0.i6.62c8131ebgZPQBd" floorid="1987583"></rect><rect x="564.51" y="1689" width="631" height="341" style="fill: rgb(238, 238, 238);" data-spm-anchor-id="a2o7u.seatMakeOld.0.i8.62c8131ebgZPQBd" floorid="1987578"></rect><rect x="1219" y="1689" width="463" height="341" style="fill: rgb(212, 125, 74); opacity: 1;" data-spm-anchor-id="a2o7u.seatMakeOld.0.i7.61c8131ebgZPQBd" floorid="1987577"></rect><rect x="110.51" y="1236.52" width="101" height="424" style="fill: rgb(238, 238, 238);" data-spm-anchor-id="a2o7u.seatMakeOld.0.i10.62c8131ebgZPQBd" floorid="1987580"></rect><rect x="77" y="1689" width="463" height="341" style="fill: rgb(212, 125, 74); opacity: 1;" data-spm-anchor-id="a2o7u.seatMakeOld.0.i9.61c8131ebgZPQBd" floorid="1987579"></rect><path d="M1226,712.51v-101h315.38a121.36,121.35,0,0,1,16,1.07l.82.11-70.52,99.83Zm27.75-120V91.52h421v501Z" style="fill: rgb(212, 125, 74); opacity: 1;" data-spm-anchor-id="a2o7u.seatMakeOld.0.i3.6c8131ebgZPQBd" floorid="1987586"></path><rect x="528.75" y="91.52" width="701" height="501" style="fill: rgb(212, 125, 74); opacity: 1;" data-spm-anchor-id="a2o7u.seatMakeOld.0.i2.6c8131ebgZPQBd" floorid="1987585"></rect><rect x="556.52" y="611.52" width="645.51" height="101" style="fill: rgb(238, 238, 238);" data-spm-anchor-id="a2o7u.seatMakeOld.0.i4.6c8131ebgZPQBd" floorid="1987587"></rect><path d="M300.51,987.51h20v224h-80v-224h60Z" style="stroke: rgb(51, 51, 51); stroke-miterlimit: 10; fill: rgb(251, 171, 56); opacity: 0.2;" floorid="1987598"></path><path d="M300.52,1235.52h20v224h-80v-224h60Z" style="stroke: rgb(51, 51, 51); stroke-miterlimit: 10; fill: rgb(251, 171, 56); opacity: 0.2;" floorid="1987597"></path><path d="M1108.51,1550.52h224v80h-224v-80Z" style="stroke: rgb(51, 51, 51); stroke-miterlimit: 10; fill: rgb(251, 171, 56); opacity: 0.2;" floorid="1987594"></path><path d="M1505.51,1235.52h20v224h-80v-224h60Z" style="stroke: rgb(51, 51, 51); stroke-miterlimit: 10; fill: rgb(251, 171, 56); opacity: 0.2;" floorid="1987593"></path><path d="M427.51,1550.52h224v80h-224v-80Z" style="stroke: rgb(51, 51, 51); stroke-miterlimit: 10; fill: rgb(251, 171, 56); opacity: 0.2;" floorid="1987596"></path><path d="M676,1550.51h408v80H676v-80Z" style="stroke: rgb(51, 51, 51); stroke-miterlimit: 10; fill: rgb(117, 113, 239); opacity: 0.2;" floorid="1987595"></path><path d="M1156,838H604V738h552V838Z" style="stroke: rgb(51, 51, 51); stroke-miterlimit: 10; fill: rgb(117, 113, 239); opacity: 0.2;" floorid="1987590" data-spm-anchor-id="a2oeg.selectseat.0.i0.4081ce83DobMqC"></path><path d="M578.52,838.51h-224v-100h224v100Z" style="stroke: rgb(51, 51, 51); stroke-miterlimit: 10; fill: rgb(251, 171, 56); opacity: 0.2;" floorid="1987589"></path><path d="M1525.51,987.52v224h-80v-224h80Z" style="stroke: rgb(51, 51, 51); stroke-miterlimit: 10; fill: rgb(251, 171, 56); opacity: 0.2;" floorid="1987592"></path><path d="M1181.51,739.52h224v100h-224v-100Z" style="stroke: rgb(51, 51, 51); stroke-miterlimit: 10; fill: rgb(251, 171, 56); opacity: 0.2;" floorid="1987591"></path><path d="M516,870.51h728v40H516v-40Z" style="stroke: rgb(51, 51, 51); stroke-miterlimit: 10; fill: rgb(238, 238, 238);" floorid="1987588"></path><text text-anchor="middle" x="1589.2999267578125" y="916.25" style="font-size: 40px; fill: rgb(0, 0, 0);">南一区</text><text text-anchor="middle" x="175.81999969482422" y="918.2949829101562" style="font-size: 40px; fill: rgb(0, 0, 0);">北二区</text><text text-anchor="middle" x="308.11500549316406" y="402" style="font-size: 40px; fill: rgb(0, 0, 0);">东一区</text><text text-anchor="middle" x="1611" y="1449.5" style="font-size: 40px; fill: rgb(0, 0, 0);">南二区</text><text text-anchor="middle" x="880" y="1859.5" style="font-size: 40px; fill: rgb(0, 0, 0);" id="1887750">西二区</text><text text-anchor="middle" x="1450.5" y="1859.5" style="font-size: 40px; fill: rgb(0, 0, 0);">西一区</text><text text-anchor="middle" x="161" y="1448.5" style="font-size: 40px; fill: rgb(0, 0, 0);">北一区</text><text text-anchor="middle" x="308.5" y="1859.5" style="font-size: 40px; fill: rgb(0, 0, 0);">西三区</text><text text-anchor="middle" x="1450.375" y="402" style="font-size: 40px; fill: rgb(0, 0, 0);">东三区</text><text text-anchor="middle" x="879.25" y="342" style="font-size: 40px; fill: rgb(0, 0, 0);">东二区</text><text text-anchor="middle" x="879.25" y="662" style="font-size: 40px; fill: rgb(0, 0, 0);">主席台</text><text text-anchor="middle" x="315.5495765623941" y="1117.9471455591547" style="font-size: 30px; fill: rgb(0, 0, 0);">内场北二区</text><text text-anchor="middle" x="308.1707183387322" y="1360.4130018914084" style="font-size: 30px; fill: rgb(0, 0, 0);" id="2018905">内场北一区</text><text text-anchor="middle" x="1218.6552854440845" y="1596.0341436677465" style="font-size: 30px; fill: rgb(0, 0, 0);">内场西一区</text><text text-anchor="middle" x="1470.742283552676" y="1362.257716447324" style="font-size: 30px; fill: rgb(0, 0, 0);">内场南二区</text><text text-anchor="middle" x="539.5" y="1590.5" style="font-size: 30px; fill: rgb(0, 0, 0);">内场西三区</text><text text-anchor="middle" x="880" y="1590.5" style="font-size: 30px; fill: rgb(0, 0, 0);">内场西二区</text><text text-anchor="middle" x="870.7764272204226" y="793.5341436677464" style="font-size: 30px; fill: rgb(0, 0, 0);">内场东二区</text><text text-anchor="middle" x="466.5" y="795.878858223662" style="font-size: 30px; fill: rgb(0, 0, 0);">内场东一区</text><text text-anchor="middle" x="1474.4317126645071" y="1116.1024310032394" style="font-size: 30px; fill: rgb(0, 0, 0);">内场南一区</text><text text-anchor="middle" x="1293.5" y="798.7235727795774" style="font-size: 30px; fill: rgb(0, 0, 0);">内场东三区</text><text text-anchor="middle" x="863.3975689967607" y="899.7235727795774" style="font-size: 30px; fill: rgb(0, 0, 0);">内场贵宾区</text>
</svg>
